<svg width="12" height="12" viewBox="0 0 12 12" fill="none" xmlns="http://www.w3.org/2000/svg">
<rect x="0.5" y="0.5" width="11" height="11" rx="5.5" fill="#4778F5"/>
<rect x="0.5" y="0.5" width="11" height="11" rx="5.5" stroke="white"/>
<g clip-path="url(#clip0_39_2317)">
<path d="M3.82102 3.47775C4.42587 2.95364 5.19968 2.66563 6.00002 2.66675C7.84102 2.66675 9.33335 4.15908 9.33335 6.00008C9.33335 6.71208 9.11002 7.37208 8.73002 7.91342L7.66669 6.00008H8.66669C8.66673 5.47729 8.5131 4.96602 8.22491 4.52984C7.93671 4.09365 7.52666 3.7518 7.04575 3.54679C6.56483 3.34178 6.03426 3.28265 5.52001 3.37676C5.00575 3.47086 4.53051 3.71405 4.15335 4.07608L3.82102 3.47775ZM8.17902 8.52242C7.57417 9.04653 6.80036 9.33453 6.00002 9.33342C4.15902 9.33342 2.66669 7.84108 2.66669 6.00008C2.66669 5.28808 2.89002 4.62808 3.27002 4.08675L4.33335 6.00008H3.33335C3.33331 6.52288 3.48694 7.03415 3.77513 7.47033C4.06333 7.90651 4.47338 8.24836 4.95429 8.45338C5.43521 8.65839 5.96578 8.71752 6.48003 8.62341C6.99429 8.52931 7.46954 8.28612 7.84669 7.92408L8.17902 8.52242Z" fill="white"/>
</g>
<defs>
<clipPath id="clip0_39_2317">
<rect width="8" height="8" fill="white" transform="translate(2 2)"/>
</clipPath>
</defs>
</svg>
